<svg xmlns="http://www.w3.org/2000/svg"  viewBox="0 0 24 24" width="96px" height="96px" baseProfile="basic"><linearGradient id="1uFz8rHabOhrUyyYQey52a" x1="3.879" x2="20.121" y1="3.879" y2="20.121" gradientUnits="userSpaceOnUse"><stop offset="0" stop-color="#fff" stop-opacity=".6"/><stop offset="1" stop-color="#fff" stop-opacity=".3"/></linearGradient><path fill="url(#1uFz8rHabOhrUyyYQey52a)" d="M19,20H5c-1.657,0-3-1.343-3-3V7c0-1.657,1.343-3,3-3h14c1.657,0,3,1.343,3,3v10 C22,18.657,20.657,20,19,20z"/><linearGradient id="1uFz8rHabOhrUyyYQey52b" x1="3.879" x2="20.121" y1="3.879" y2="20.121" gradientUnits="userSpaceOnUse"><stop offset="0" stop-color="#fff" stop-opacity=".6"/><stop offset=".493" stop-color="#fff" stop-opacity="0"/><stop offset=".997" stop-color="#fff" stop-opacity=".3"/></linearGradient><path fill="url(#1uFz8rHabOhrUyyYQey52b)" d="M19,4.5c1.379,0,2.5,1.121,2.5,2.5v10 c0,1.378-1.121,2.5-2.5,2.5H5c-1.379,0-2.5-1.122-2.5-2.5V7c0-1.379,1.121-2.5,2.5-2.5H19 M19,4H5C3.343,4,2,5.343,2,7v10 c0,1.657,1.343,3,3,3h14c1.657,0,3-1.343,3-3V7C22,5.343,20.657,4,19,4L19,4z"/><linearGradient id="1uFz8rHabOhrUyyYQey52c" x1="15.586" x2="18.414" y1="6.586" y2="9.414" gradientUnits="userSpaceOnUse"><stop offset="0" stop-color="#fff" stop-opacity=".7"/><stop offset=".519" stop-color="#fff" stop-opacity=".45"/><stop offset="1" stop-color="#fff" stop-opacity=".55"/></linearGradient><circle cx="17" cy="8" r="2" fill="url(#1uFz8rHabOhrUyyYQey52c)"/><linearGradient id="1uFz8rHabOhrUyyYQey52d" x1="6.292" x2="16.373" y1="9.961" y2="20.042" gradientUnits="userSpaceOnUse"><stop offset="0" stop-color="#fff" stop-opacity=".7"/><stop offset=".519" stop-color="#fff" stop-opacity=".45"/><stop offset="1" stop-color="#fff" stop-opacity=".55"/></linearGradient><path fill="url(#1uFz8rHabOhrUyyYQey52d)" d="M4,16c0,0.548,0.448,1,1,1h14	c0.552,0,1-0.444,1-1c0-1.364-1.688-3-2.5-3s-1.548,1-3.5,1c-2.442,0-4-5-6-5S4,13.362,4,16z"/></svg>